<?xml version="1.0" standalone="no"?>
<!DOCTYPE svg PUBLIC "-//W3C//DTD SVG 20010904//EN"
 "http://www.w3.org/TR/2001/REC-SVG-20010904/DTD/svg10.dtd">
<svg version="1.0" xmlns="http://www.w3.org/2000/svg"
 width="372.000000pt" height="372.000000pt" viewBox="0 0 372.000000 372.000000"
 preserveAspectRatio="xMidYMid meet">
<metadata>
Created by potrace 1.14, written by Peter Selinger 2001-2017
</metadata>
<g transform="translate(0.000000,372.000000) scale(0.100000,-0.100000)"
fill="#000000" stroke="none">
<path d="M0 1860 l0 -1860 1860 0 1860 0 0 1860 0 1860 -1860 0 -1860 0 0
-1860z m3103 1400 c249 -53 446 -177 513 -325 87 -189 25 -405 -151 -530 -150
-106 -322 -159 -568 -174 -556 -33 -948 141 -1007 447 -59 300 210 546 658
601 130 16 442 6 555 -19z m-1296 -672 c-3 -590 -5 -700 -18 -743 -41 -132
-98 -216 -177 -262 -39 -23 -60 -28 -137 -31 -106 -5 -107 -5 -125 88 -6 36
-20 90 -30 120 -17 49 -50 204 -50 234 0 7 19 11 49 11 35 0 55 6 71 20 50 44
50 44 50 670 l0 585 185 0 186 0 -4 -692z m-775 668 c145 -31 243 -107 273
-211 19 -65 14 -128 -16 -186 -25 -50 -99 -113 -165 -140 l-54 -23 73 -21
c182 -52 255 -145 245 -310 -10 -151 -110 -259 -291 -312 -43 -13 -136 -17
-539 -20 l-488 -5 0 621 0 621 448 0 c347 0 462 -4 514 -14z m945 -1118 c5 -7
10 -34 11 -60 1 -43 -1 -48 -22 -54 -49 -12 -61 -2 -64 50 -2 27 -1 55 2 62 7
17 60 18 73 2z m53 -53 c0 -37 -4 -65 -10 -65 -6 0 -10 28 -10 65 0 37 4 65
10 65 6 0 10 -28 10 -65z m100 50 c11 -13 11 -20 0 -39 -9 -18 -9 -29 -1 -44
13 -25 14 -32 3 -32 -5 0 -14 11 -20 25 -6 14 -18 25 -27 25 -9 0 -15 -9 -15
-25 0 -14 -4 -25 -10 -25 -6 0 -10 28 -10 65 l0 65 34 0 c18 0 39 -7 46 -15z
m110 -5 c41 -41 10 -110 -50 -110 l-30 0 0 65 0 65 30 0 c17 0 39 -9 50 -20z
m130 -33 c0 -29 -5 -58 -12 -65 -15 -15 -48 -16 -48 -2 0 6 9 10 20 10 18 0
20 7 20 55 0 30 5 55 10 55 6 0 10 -24 10 -53z m96 -11 l20 -57 32 45 c18 24
32 47 32 50 0 3 -11 6 -25 6 -14 0 -25 5 -25 10 0 6 18 10 40 10 22 0 40 -3
40 -7 0 -5 -14 -28 -30 -53 l-30 -45 30 -3 c51 -6 33 -22 -25 -22 -44 0 -56 4
-65 20 -6 11 -20 20 -31 20 -12 0 -23 -8 -26 -20 -3 -11 -10 -20 -15 -20 -6 0
-8 6 -6 13 3 6 13 36 23 65 11 29 24 51 30 49 5 -2 19 -29 31 -61z m214 58 c0
-4 -16 -29 -35 -55 l-35 -49 30 0 c17 0 30 -4 30 -10 0 -5 -18 -10 -40 -10
-22 0 -40 5 -40 11 0 6 14 30 30 55 l31 44 -31 0 c-16 0 -30 5 -30 10 0 6 20
10 45 10 25 0 45 -3 45 -6z m142 -11 c36 -33 12 -113 -34 -113 -40 0 -58 19
-58 60 0 63 49 92 92 53z m112 -5 c8 -13 7 -23 -2 -39 -11 -17 -11 -25 3 -45
12 -19 13 -24 2 -24 -8 0 -19 11 -25 25 -6 14 -16 25 -22 25 -5 0 -10 -11 -10
-25 0 -14 -4 -25 -10 -25 -6 0 -10 29 -10 66 l0 65 31 -3 c18 -2 37 -11 43
-20z m106 12 c0 -5 -11 -10 -25 -10 -32 0 -48 -30 -35 -64 7 -20 16 -26 40
-26 18 0 29 -4 25 -10 -10 -16 -61 -12 -76 6 -7 9 -13 31 -13 49 0 18 6 40 13
49 15 17 71 22 71 6z m40 -21 c0 -27 3 -30 28 -27 21 2 28 9 30 31 6 53 22 26
22 -38 0 -37 -4 -65 -10 -65 -5 0 -10 14 -10 30 0 27 -3 30 -30 30 -27 0 -30
-3 -30 -30 0 -16 -4 -30 -10 -30 -6 0 -10 28 -10 65 0 37 4 65 10 65 6 0 10
-14 10 -31z m180 21 c0 -5 -14 -10 -31 -10 -23 0 -30 -4 -27 -17 2 -9 14 -20
28 -24 l25 -7 -27 -1 c-21 -1 -28 -6 -28 -21 0 -16 7 -20 30 -20 17 0 30 -4
30 -10 0 -5 -18 -10 -40 -10 l-40 0 0 65 0 65 40 0 c22 0 40 -4 40 -10z m85 0
c4 -6 -7 -10 -24 -10 -40 0 -40 -22 -1 -37 40 -15 43 -59 5 -69 -14 -3 -33 -3
-42 2 -14 6 -11 9 15 12 39 4 43 28 7 42 -31 12 -41 35 -25 55 14 17 56 20 65
5z m105 0 c0 -5 -9 -10 -20 -10 -18 0 -20 -7 -20 -55 0 -30 -4 -55 -10 -55 -5
0 -10 25 -10 55 0 42 -3 55 -15 55 -8 0 -15 5 -15 10 0 6 20 10 45 10 25 0 45
-4 45 -10z m90 -11 c9 -16 8 -24 -4 -37 -13 -15 -13 -20 3 -41 l18 -23 23 61
c12 34 27 60 33 58 10 -3 45 -89 46 -114 1 -21 -16 -15 -22 7 -3 12 -14 20
-26 20 -11 0 -25 -9 -31 -20 -15 -28 -44 -25 -60 5 -7 14 -19 25 -27 25 -7 0
-13 -11 -13 -25 0 -14 -4 -25 -10 -25 -6 0 -10 28 -10 65 l0 65 35 0 c25 0 37
-6 45 -21z m-246 -175 c23 -9 20 -54 -6 -81 l-21 -23 21 0 c11 0 24 -4 27 -10
4 -6 -10 -10 -34 -10 -23 0 -41 3 -41 6 0 3 11 19 25 36 33 40 33 68 -1 68
-14 0 -23 4 -19 10 7 11 26 13 49 4z m114 -6 c16 -16 16 -90 0 -106 -7 -7 -21
-12 -33 -12 -31 0 -45 19 -45 61 0 56 46 89 78 57z m118 -13 c11 -17 14 -35
10 -59 -7 -34 -21 -46 -56 -46 -38 0 -53 67 -24 108 20 29 50 28 70 -3z m104
-25 c0 -21 4 -40 9 -42 5 -1 3 -12 -6 -23 -11 -14 -17 -16 -20 -7 -3 6 -18 12
-34 12 -16 0 -29 4 -29 10 0 17 63 99 72 94 4 -3 8 -23 8 -44z m-755 10 c3 -5
-3 -10 -14 -10 -27 0 -27 -17 0 -25 31 -10 21 -49 -13 -53 -16 -2 -28 1 -28 6
0 6 9 8 20 5 13 -4 20 0 20 10 0 8 -9 17 -20 20 -22 6 -28 42 -7 50 20 9 35 8
42 -3z m32 -67 c-2 -16 -4 -3 -4 27 0 30 2 43 4 28 2 -16 2 -40 0 -55z m101
25 c2 -29 -1 -48 -7 -48 -6 0 -11 18 -11 40 0 33 -3 40 -20 40 -17 0 -20 -7
-20 -40 0 -22 -4 -40 -10 -40 -10 0 -15 82 -5 91 2 3 19 5 37 4 32 0 33 -1 36
-47z m79 45 c15 -6 13 -8 -12 -13 -34 -6 -46 -39 -22 -59 21 -16 47 -3 47 24
0 25 24 55 44 55 18 0 36 -21 36 -42 0 -13 -8 -18 -31 -18 -27 0 -30 -2 -19
-15 7 -9 21 -13 31 -10 11 4 19 2 19 -4 0 -14 -57 -14 -66 0 -4 8 -9 8 -17 0
-20 -20 -57 -13 -69 14 -9 19 -8 29 6 50 18 27 24 29 53 18z m423 -163 c0 -5
-5 -10 -11 -10 -5 0 -7 5 -4 10 3 6 8 10 11 10 2 0 4 -4 4 -10z m-765 -35 c0
-16 4 -35 8 -42 11 -17 -28 -53 -58 -53 -24 0 -25 2 -25 66 l0 65 38 -3 c34
-3 37 -6 37 -33z m113 8 c4 -28 -14 -30 -21 -3 -3 11 -12 20 -21 20 -9 0 -16
-8 -16 -20 0 -13 7 -20 18 -20 23 0 42 -19 42 -42 0 -20 -28 -38 -59 -38 -19
0 -21 6 -21 66 l0 65 38 -3 c30 -2 38 -7 40 -25z m72 -19 c14 -50 22 -48 40 9
19 60 40 48 40 -22 0 -72 -18 -91 -22 -24 l-3 48 -16 -45 c-9 -25 -19 -45 -24
-45 -5 0 -15 20 -24 45 l-16 45 -6 -50 c-6 -49 -6 -49 -7 18 -2 81 18 93 38
21z m198 34 c7 -7 12 -29 12 -50 0 -29 -6 -41 -26 -55 -24 -15 -29 -15 -53 -2
-29 16 -40 64 -21 99 12 23 68 28 88 8z m438 -12 c9 -9 10 -17 4 -21 -14 -9
-13 -65 2 -65 9 0 9 -3 1 -11 -18 -18 -33 -1 -33 36 0 19 -4 37 -10 40 -6 4
-5 11 3 20 15 18 16 18 33 1z m-306 -17 c0 -5 -4 -7 -10 -4 -5 3 -15 3 -21 -1
-7 -4 -1 -15 17 -30 27 -21 28 -24 12 -40 -14 -14 -22 -15 -40 -6 -23 11 -23
11 5 11 34 1 35 14 2 29 -24 11 -32 31 -18 45 10 11 53 8 53 -4z m98 -1 c29
-29 8 -80 -32 -80 -15 0 -26 -6 -26 -14 0 -8 -4 -14 -10 -14 -6 0 -10 27 -10
60 l0 60 33 0 c18 0 38 -5 45 -12z m39 -65 c-2 -16 -4 -3 -4 27 0 30 2 43 4
28 2 -16 2 -40 0 -55z m71 63 c-11 -8 -18 -26 -18 -44 0 -17 -4 -34 -10 -37
-6 -4 -10 13 -10 44 0 49 1 51 28 51 24 -1 25 -2 10 -14z m42 -37 c0 -31 -4
-48 -10 -44 -5 3 -10 26 -10 51 0 24 5 44 10 44 6 0 10 -23 10 -51z m140 42
c0 -5 -7 -8 -16 -7 -26 2 -27 -18 -2 -29 32 -15 33 -33 4 -47 -20 -9 -29 -9
-38 0 -9 9 -6 12 15 12 34 0 35 13 2 28 -24 11 -32 31 -18 45 10 10 53 8 53
-2z m-2695 -758 c0 -17 3 -35 8 -39 4 -4 7 11 7 34 0 23 5 42 10 42 6 0 10
-29 10 -67 -1 -56 -3 -65 -13 -52 -10 14 -14 14 -25 3 -7 -8 -26 -14 -42 -14
l-30 0 0 66 0 65 38 -3 c34 -3 37 -5 37 -35z m140 27 c4 -7 -2 -9 -18 -5 -43
11 -77 -51 -45 -83 17 -17 48 -15 48 3 0 8 -4 15 -10 15 -5 0 -10 5 -10 10 0
6 9 10 21 10 17 0 20 -5 17 -32 -2 -27 -8 -34 -30 -36 -55 -6 -89 68 -51 110
17 19 68 25 78 8z m132 -45 c1 -59 -9 -75 -48 -75 l-29 0 0 66 0 65 38 -3 37
-3 2 -50z m90 -2 l22 -58 0 58 c1 70 17 75 52 15 l24 -43 3 43 c5 67 22 49 22
-23 0 -36 -4 -65 -9 -65 -5 0 -23 24 -40 53 l-31 52 0 -52 c0 -46 -3 -53 -19
-53 -11 0 -23 9 -26 20 -4 13 -15 20 -30 20 -15 0 -26 -7 -30 -20 -3 -11 -11
-20 -17 -20 -5 0 -8 6 -5 13 2 6 13 36 23 65 10 28 24 52 29 52 6 0 21 -26 32
-57z m221 45 c7 -7 12 -29 12 -50 0 -43 -32 -72 -72 -66 -21 3 -23 9 -26 66
l-3 62 39 0 c21 0 43 -5 50 -12z m112 -34 c0 -55 -14 -84 -40 -84 -26 0 -26
16 0 23 17 4 20 14 20 56 0 28 5 51 10 51 6 0 10 -21 10 -46z m83 -12 l20 -53
28 43 c16 24 29 46 29 50 0 4 -12 9 -27 11 -16 2 11 5 60 6 48 0 87 -1 87 -4
0 -3 -16 -27 -36 -55 l-36 -50 31 0 c17 0 31 -4 31 -10 0 -6 -37 -10 -91 -10
-82 0 -91 2 -96 20 -7 27 -49 26 -63 -1 -7 -11 -14 -18 -17 -15 -9 9 39 127
50 123 6 -2 19 -27 30 -55z m562 48 c84 -13 149 -29 142 -37 -3 -3 -64 -9
-135 -13 -71 -4 -139 -13 -152 -20 -20 -11 -22 -18 -18 -63 5 -65 43 -149 130
-296 80 -134 84 -161 36 -208 -18 -18 -45 -36 -60 -42 -31 -12 -37 -5 -11 14
39 29 -24 62 -67 35 -12 -7 -11 -13 9 -34 l24 -25 -26 -6 c-14 -4 -71 -5 -126
-3 -117 4 -138 15 -187 99 -36 60 -85 99 -126 99 -35 0 -36 13 -3 28 42 19
198 62 226 62 25 0 26 -2 22 -47 -4 -41 0 -55 26 -95 32 -50 79 -81 114 -76
34 5 32 36 -13 147 -48 118 -70 211 -70 296 0 173 59 214 265 185z m-1015
-194 c0 -3 -4 -8 -10 -11 -5 -3 -10 -1 -10 4 0 6 5 11 10 11 6 0 10 -2 10 -4z
m220 -7 c0 -6 -7 -8 -16 -5 -8 3 -24 1 -35 -5 -16 -8 -19 -19 -17 -47 3 -32 7
-37 31 -40 19 -2 27 1 27 12 0 9 -8 16 -17 16 -13 0 -14 3 -6 11 20 20 45 2
41 -28 -2 -22 -9 -29 -30 -31 -48 -6 -68 13 -68 63 0 31 5 47 18 54 23 14 72
14 72 0z m114 -5 c9 -8 16 -31 16 -49 0 -18 -7 -41 -16 -49 -36 -37 -94 -6
-94 50 0 38 22 64 55 64 13 0 31 -7 39 -16z m127 0 c20 -24 16 -84 -6 -100
-41 -31 -95 -2 -95 51 0 54 69 87 101 49z m113 0 c21 -20 20 -73 -1 -96 -9
-10 -30 -18 -50 -18 l-33 0 0 65 0 65 34 0 c19 0 42 -7 50 -16z m56 -29 c0
-25 -4 -45 -10 -45 -5 0 -10 20 -10 45 0 25 5 45 10 45 6 0 10 -20 10 -45z
m-630 -41 c0 -24 -4 -44 -10 -44 -5 0 -10 23 -10 51 0 31 4 48 10 44 6 -3 10
-26 10 -51z m65 46 c3 -5 -3 -10 -14 -10 -27 0 -27 -16 0 -23 32 -9 22 -51
-13 -55 -16 -2 -28 1 -28 7 0 5 12 11 28 13 l27 4 -27 14 c-41 20 -36 56 9 59
6 1 15 -3 18 -9z m565 -80 c0 -5 -4 -10 -10 -10 -5 0 -10 5 -10 10 0 6 5 10
10 10 6 0 10 -4 10 -10z"/>
<path d="M2680 2969 c-147 -26 -234 -123 -216 -244 13 -87 87 -153 195 -176
88 -18 226 -7 294 24 135 62 166 220 63 323 -64 65 -207 96 -336 73z"/>
<path d="M560 2910 l0 -140 86 0 c108 0 157 14 194 57 25 28 30 43 30 84 0 44
-4 55 -33 84 -41 41 -89 55 -194 55 l-83 0 0 -140z"/>
<path d="M560 2410 l0 -140 112 0 c135 0 185 18 213 77 23 47 15 116 -15 148
-42 45 -80 55 -199 55 l-111 0 0 -140z"/>
<path d="M1920 2116 c0 -19 14 -28 34 -20 25 10 19 34 -9 34 -15 0 -25 -6 -25
-14z"/>
<path d="M1920 2060 c0 -15 7 -20 25 -20 18 0 25 5 25 20 0 15 -7 20 -25 20
-18 0 -25 -5 -25 -20z"/>
<path d="M2070 2110 c0 -16 5 -21 23 -18 12 2 22 10 22 18 0 8 -10 16 -22 18
-18 3 -23 -2 -23 -18z"/>
<path d="M2180 2086 c0 -42 2 -46 25 -46 48 0 45 81 -4 88 -19 3 -21 -1 -21
-42z"/>
<path d="M2422 2100 c-7 -19 -6 -26 5 -28 21 -5 25 2 14 29 l-9 24 -10 -25z"/>
<path d="M2768 2129 c-25 -14 -24 -75 1 -89 40 -21 70 50 35 84 -8 9 -16 16
-17 16 -1 0 -10 -5 -19 -11z"/>
<path d="M2880 2109 c0 -25 33 -22 38 4 2 12 -3 17 -17 17 -15 0 -21 -6 -21
-21z"/>
<path d="M3480 2110 c0 -16 5 -21 23 -18 12 2 22 10 22 18 0 8 -10 16 -22 18
-18 3 -23 -2 -23 -18z"/>
<path d="M3597 2090 c-4 -15 0 -20 13 -20 13 0 17 5 13 20 -3 11 -9 20 -13 20
-4 0 -10 -9 -13 -20z"/>
<path d="M3357 1934 c-13 -13 -7 -71 8 -84 23 -19 37 0 33 46 -3 37 -23 56
-41 38z"/>
<path d="M3466 1924 c-11 -28 -6 -61 10 -75 14 -11 18 -10 30 6 24 33 15 85
-16 85 -10 0 -21 -7 -24 -16z"/>
<path d="M3586 1895 c-16 -24 -16 -25 4 -25 15 0 20 7 20 25 0 14 -2 25 -4 25
-2 0 -11 -11 -20 -25z"/>
<path d="M3125 1900 c-3 -5 3 -10 14 -10 12 0 21 5 21 10 0 6 -6 10 -14 10 -8
0 -18 -4 -21 -10z"/>
<path d="M2690 1731 c0 -15 6 -21 21 -21 25 0 22 33 -4 38 -12 2 -17 -3 -17
-17z"/>
<path d="M2690 1670 c0 -13 7 -20 20 -20 13 0 20 7 20 20 0 13 -7 20 -20 20
-13 0 -20 -7 -20 -20z"/>
<path d="M2800 1670 c0 -13 7 -20 20 -20 13 0 20 7 20 20 0 13 -7 20 -20 20
-13 0 -20 -7 -20 -20z"/>
<path d="M3062 1738 c-14 -14 -16 -57 -3 -76 4 -8 19 -12 32 -10 19 2 25 10
27 36 5 50 -27 79 -56 50z"/>
<path d="M3313 1713 c-7 -3 -13 -18 -13 -35 0 -25 3 -29 23 -26 13 2 23 11 25
24 3 23 -16 44 -35 37z"/>
<path d="M900 971 c0 -15 6 -21 21 -21 25 0 22 33 -4 38 -12 2 -17 -3 -17 -17z"/>
<path d="M900 910 c0 -13 7 -20 20 -20 13 0 20 7 20 20 0 13 -7 20 -20 20 -13
0 -20 -7 -20 -20z"/>
<path d="M1170 970 c0 -13 7 -20 20 -20 24 0 27 25 4 34 -23 9 -24 8 -24 -14z"/>
<path d="M1170 910 c0 -13 7 -20 20 -20 13 0 20 7 20 20 0 13 -7 20 -20 20
-13 0 -20 -7 -20 -20z"/>
<path d="M1276 955 c-10 -26 -7 -35 9 -35 17 0 19 18 6 38 -7 11 -10 10 -15
-3z"/>
<path d="M1476 983 c-3 -4 -6 -26 -6 -50 0 -42 1 -44 28 -41 24 3 27 7 27 42
0 30 -5 40 -22 47 -11 4 -24 5 -27 2z"/>
<path d="M1812 946 c-18 -24 -32 -47 -32 -50 0 -3 13 -6 30 -6 23 0 35 9 60
44 16 25 30 47 30 50 0 3 -13 6 -28 6 -22 0 -36 -10 -60 -44z"/>
<path d="M1690 940 c0 -11 7 -20 15 -20 17 0 18 2 9 24 -9 23 -24 20 -24 -4z"/>
<path d="M2140 965 c0 -8 9 -15 20 -15 11 0 20 7 20 15 0 8 -9 15 -20 15 -11
0 -20 -7 -20 -15z"/>
<path d="M2060 845 c0 -8 6 -15 14 -15 7 0 19 7 26 15 11 13 8 15 -14 15 -16
0 -26 -5 -26 -15z"/>
<path d="M2100 775 c-7 -9 -10 -18 -7 -22 8 -7 37 15 37 28 0 14 -16 11 -30
-6z"/>
<path d="M2102 708 c5 -15 28 -23 28 -10 0 5 -7 13 -16 16 -10 4 -14 1 -12 -6z"/>
<path d="M2070 650 c0 -5 6 -10 14 -10 8 0 18 5 21 10 3 6 -3 10 -14 10 -12 0
-21 -4 -21 -10z"/>
<path d="M2125 510 c-8 -12 20 -24 35 -15 6 3 8 11 5 16 -8 12 -32 12 -40 -1z"/>
<path d="M2195 490 c-3 -5 3 -10 15 -10 12 0 18 5 15 10 -3 6 -10 10 -15 10
-5 0 -12 -4 -15 -10z"/>
<path d="M2250 455 c0 -8 9 -15 20 -15 11 0 20 7 20 15 0 8 -9 15 -20 15 -11
0 -20 -7 -20 -15z"/>
<path d="M2180 452 c0 -18 28 -45 39 -38 9 6 8 13 -5 27 -18 20 -34 25 -34 11z"/>
<path d="M1556 777 c-12 -9 -17 -24 -14 -47 3 -31 6 -35 33 -35 27 0 30 3 33
37 4 44 -23 66 -52 45z"/>
<path d="M1676 774 c-32 -31 -15 -88 25 -82 19 2 25 10 27 36 3 32 -11 62 -29
62 -4 0 -15 -7 -23 -16z"/>
<path d="M1790 735 c0 -45 1 -46 28 -43 24 3 27 7 27 43 0 36 -3 40 -27 43
-27 3 -28 2 -28 -43z"/>
</g>
</svg>
