<?xml version="1.0" standalone="no"?>
<!DOCTYPE svg PUBLIC "-//W3C//DTD SVG 20010904//EN"
 "http://www.w3.org/TR/2001/REC-SVG-20010904/DTD/svg10.dtd">
<svg version="1.0" xmlns="http://www.w3.org/2000/svg"
 width="279.000000pt" height="279.000000pt" viewBox="0 0 279.000000 279.000000"
 preserveAspectRatio="xMidYMid meet">
<metadata>
Created by potrace 1.11, written by Peter Selinger 2001-2013
</metadata>
<g transform="translate(0.000000,279.000000) scale(0.100000,-0.100000)"
fill="#000000" stroke="none">
<path d="M0 1395 l0 -1395 1395 0 1395 0 0 1395 0 1395 -1395 0 -1395 0 0
-1395z m2260 1060 c125 -18 211 -46 285 -90 83 -50 121 -89 158 -165 45 -91
45 -169 -1 -262 -37 -76 -83 -121 -173 -171 -123 -69 -327 -105 -522 -93 -368
22 -589 171 -590 397 0 236 257 394 648 398 55 0 143 -6 195 -14z m-1448 -13
c56 -19 130 -73 153 -112 26 -45 27 -141 1 -188 -9 -19 -40 -47 -67 -64 -27
-17 -49 -34 -49 -37 0 -3 25 -17 56 -30 198 -86 190 -348 -14 -448 l-57 -28
-392 -3 -393 -3 0 466 0 466 363 -4 c246 -2 374 -7 399 -15z m548 -473 c0
-310 -4 -517 -11 -562 -19 -124 -82 -213 -166 -236 -44 -13 -133 -14 -150 -3
-9 6 -113 270 -113 287 0 2 20 3 44 3 52 -1 92 21 106 58 6 15 10 217 10 485
l0 459 140 0 140 0 0 -491z m129 -381 c-2 -13 1 -29 5 -37 10 -16 -17 -41 -46
-41 -15 0 -18 8 -18 50 0 49 1 50 31 50 26 0 30 -3 28 -22z m32 -26 c-4 -54
-11 -53 -11 3 0 27 3 45 7 41 4 -4 6 -24 4 -44z m76 2 c0 -39 -2 -44 -12 -30
-15 20 -25 21 -25 2 0 -8 -4 -18 -10 -21 -6 -4 -10 13 -10 44 0 50 1 51 29 51
28 0 29 -2 28 -46z m92 24 c12 -32 2 -58 -27 -69 -38 -15 -52 -4 -52 39 0 46
5 52 42 52 20 0 31 -6 37 -22z m81 -22 c0 -31 -5 -46 -16 -50 -22 -8 -33 2
-15 14 9 5 14 23 13 44 -1 20 3 36 8 36 6 0 10 -20 10 -44z m75 2 l17 -43 24
30 c30 37 30 42 2 48 -13 2 10 5 50 6 39 0 72 -3 72 -8 0 -4 -9 -20 -20 -34
-11 -14 -20 -28 -20 -31 0 -3 9 -6 20 -6 11 0 20 -4 20 -10 0 -16 -161 -9
-167 7 -7 18 -40 16 -47 -3 -4 -9 -9 -15 -11 -12 -7 7 25 98 35 98 4 0 15 -19
25 -42z m289 9 c8 -23 6 -31 -11 -48 -38 -39 -83 -1 -69 57 6 21 12 25 39 22
24 -2 34 -9 41 -31z m73 -20 c1 -28 -2 -45 -7 -42 -6 4 -10 13 -10 21 0 8 -7
14 -16 14 -8 0 -13 -4 -9 -9 3 -5 1 -12 -5 -16 -6 -4 -10 11 -10 40 0 45 1 46
28 43 25 -3 27 -7 29 -51z m68 46 c-48 -11 -51 -73 -3 -73 17 0 19 -3 10 -12
-20 -20 -62 6 -62 40 0 35 17 52 50 51 20 -1 21 -2 5 -6z m45 -13 c0 -13 7
-20 20 -20 13 0 20 7 20 20 0 11 5 20 10 20 6 0 10 -20 10 -44 0 -25 -4 -48
-10 -51 -6 -4 -10 5 -10 19 0 19 -5 26 -20 26 -15 0 -20 -7 -20 -26 0 -14 -4
-23 -10 -19 -5 3 -10 26 -10 51 0 24 5 44 10 44 6 0 10 -9 10 -20z m113 13
c-27 -5 -31 -32 -5 -34 16 -1 16 -2 0 -6 -10 -2 -18 -11 -18 -19 0 -10 13 -14
45 -14 49 0 57 10 23 32 -14 10 -19 20 -15 32 6 14 19 16 99 14 l93 -3 1 -47
c1 -26 -2 -45 -7 -42 -5 3 -9 12 -9 20 0 8 -7 14 -16 14 -8 0 -13 -4 -10 -8 2
-4 1 -14 -5 -22 -6 -10 -9 0 -9 33 0 40 -3 47 -20 47 -17 0 -20 -7 -22 -47
l-2 -48 -3 47 c-4 47 -4 47 -39 46 -21 -1 -34 -6 -34 -15 0 -7 6 -13 14 -13
18 0 29 -29 16 -45 -6 -7 -32 -12 -62 -11 l-53 1 -3 48 -3 47 33 -1 c23 -1 26
-3 11 -6z m296 -30 c14 -50 14 -74 0 -50 -5 9 -15 17 -21 17 -6 0 -17 -8 -24
-17 -17 -23 -18 -4 -2 48 14 49 34 50 47 2z m-539 -113 c0 -5 -5 -10 -11 -10
-5 0 -7 5 -4 10 3 6 8 10 11 10 2 0 4 -4 4 -10z m310 -20 c0 -10 -7 -23 -16
-31 -14 -12 -14 -14 2 -26 16 -12 15 -13 -14 -13 -37 0 -40 10 -12 35 27 24
25 45 -2 46 -22 0 -22 1 -3 8 27 11 45 3 45 -19z m92 12 c21 21 44 15 52 -15
l6 -22 19 23 c23 27 41 28 41 3 0 -11 2 -25 5 -33 7 -18 -15 -48 -22 -30 -6
14 -49 16 -58 2 -11 -18 -43 -10 -51 12 l-7 23 -8 -23 c-6 -17 -15 -22 -31
-20 -30 4 -37 57 -12 83 17 17 19 17 33 -2 15 -18 17 -18 33 -1z m-442 -22
c-13 -9 -13 -11 0 -20 23 -15 32 -12 25 10 -4 11 -2 20 4 20 6 0 11 -16 11
-35 0 -32 -19 -52 -21 -22 0 10 -2 10 -6 0 -2 -7 -14 -13 -26 -13 -17 0 -19 2
-8 9 12 8 12 12 2 25 -15 18 -7 36 17 36 15 0 15 -2 2 -10z m118 -27 c2 -19
-1 -33 -7 -33 -6 0 -11 14 -11 30 0 40 -17 38 -29 -2 l-9 -33 -1 38 c-1 36 1
38 27 35 22 -2 28 -8 30 -35z m132 16 c0 -10 -9 -19 -22 -22 -23 -4 -23 -4 2
-14 22 -10 17 -11 -32 -11 -63 -1 -73 7 -64 43 5 21 11 23 61 23 46 -1 55 -4
55 -19z m-265 -145 c0 -33 -3 -39 -24 -42 -13 -2 -28 2 -33 10 -7 10 -11 10
-15 1 -2 -7 -18 -13 -34 -13 -28 0 -29 2 -29 45 0 43 1 45 30 45 25 0 30 -4
30 -24 0 -14 5 -28 11 -32 7 -4 10 2 8 17 -5 35 8 50 34 40 18 -7 22 -16 22
-47z m200 36 c36 -39 -10 -106 -54 -78 -11 7 -22 19 -25 28 -2 9 -4 6 -5 -7
-2 -33 -21 -28 -22 5 l-1 27 -11 -27 c-13 -34 -21 -35 -35 -5 l-11 22 0 -22
c-1 -13 -6 -23 -11 -23 -7 0 -10 19 -9 45 3 50 24 62 35 20 3 -14 10 -25 14
-25 4 0 11 11 14 25 8 31 20 32 34 3 6 -13 11 -17 11 -9 1 15 30 40 47 41 6 0
19 -9 29 -20z m349 -5 c9 -9 17 -11 21 -5 8 13 35 13 35 0 0 -5 -8 -10 -17
-10 -17 -1 -17 -1 0 -14 29 -22 21 -43 -18 -48 -40 -5 -52 5 -55 42 -5 54 5
64 34 35z m-254 -5 c0 -5 -7 -10 -16 -10 -12 0 -11 -5 7 -20 23 -19 23 -20 5
-35 -10 -8 -24 -11 -30 -7 -7 4 -5 8 7 10 21 4 22 11 0 27 -9 7 -14 19 -10 29
7 17 37 23 37 6z m77 -2 c22 -18 16 -57 -12 -70 -14 -6 -25 -15 -25 -20 0 -4
-4 -8 -10 -8 -5 0 -10 24 -10 53 0 47 2 53 22 54 12 1 28 -3 35 -9z m123 -31
c0 -22 -3 -37 -7 -33 -8 8 -10 14 -12 47 -1 28 -19 15 -30 -24 l-9 -32 -1 41
c-1 38 0 40 29 40 28 0 30 -2 30 -39z m-80 -2 c0 -40 -15 -48 -18 -9 -2 25 4
44 14 44 2 0 4 -16 4 -35z m-1834 -517 c3 -4 12 -4 20 -1 8 3 14 0 14 -6 0 -8
7 -7 23 3 14 9 29 11 42 6 18 -8 17 -9 -7 -9 -50 -2 -57 -71 -7 -71 17 0 18 3
9 20 -9 16 -8 20 5 20 22 0 20 -46 -3 -52 -9 -3 -26 -2 -37 2 -11 4 -26 3 -32
-2 -9 -7 -13 -7 -13 1 0 9 -5 9 -21 1 -34 -19 -49 -5 -49 44 0 43 9 55 37 52
7 -1 15 -5 19 -8z m193 -2 c6 -7 9 -21 5 -30 -3 -9 -2 -16 4 -16 6 0 15 14 21
32 13 37 24 31 45 -27 l15 -40 0 43 c1 49 11 53 40 15 l20 -28 1 30 c0 27 4
30 33 32 42 3 68 -15 72 -51 7 -58 -91 -77 -123 -24 -19 32 -37 37 -29 9 8
-33 -9 -46 -29 -22 -22 26 -41 27 -48 4 -4 -12 -18 -19 -41 -20 -19 -2 -35 -2
-35 0 -14 90 -11 107 18 107 11 0 25 -6 31 -14z m376 -26 c9 -42 20 -45 45
-10 l21 30 -20 0 c-12 0 -21 5 -21 10 0 6 28 10 65 10 71 0 78 -8 45 -50 -25
-32 -25 -40 0 -40 11 0 20 -4 20 -10 0 -6 -30 -10 -70 -10 -59 0 -72 3 -82 20
-15 24 -22 25 -40 7 -17 -17 -68 -31 -68 -18 0 5 7 11 15 15 10 3 15 19 15 42
0 46 11 39 12 -7 l1 -34 18 43 c20 47 34 48 44 2z m503 14 c28 -8 52 -18 52
-23 0 -4 -46 -8 -102 -7 -126 0 -152 -11 -142 -57 14 -66 47 -138 99 -219 60
-92 67 -124 33 -161 -61 -64 -247 -75 -312 -18 -10 9 -25 33 -34 55 -15 39
-57 66 -102 66 -11 0 -20 4 -20 9 0 10 134 51 191 58 39 6 39 5 30 -20 -19
-50 49 -147 103 -147 27 0 23 26 -18 125 -38 93 -41 106 -41 197 0 106 16 145
66 160 32 9 132 1 197 -18z m-665 -131 c4 -4 -7 -13 -24 -20 -23 -10 -30 -18
-27 -35 2 -15 11 -24 26 -26 23 -4 31 13 10 21 -8 4 -5 8 9 12 11 4 23 15 26
26 6 21 61 27 73 8 4 -8 9 -8 17 0 15 15 60 14 75 -1 9 -9 12 -9 12 0 0 7 13
12 28 12 15 0 33 -5 40 -12 17 -17 15 -54 -4 -72 -18 -19 -61 -21 -67 -3 -3 9
-7 9 -20 -2 -19 -15 -67 -7 -67 12 0 8 -3 7 -9 -3 -7 -9 -31 -15 -75 -17 -60
-2 -68 0 -81 21 -19 28 -6 72 22 79 28 7 29 7 36 0z m-157 -18 c-4 -12 0 -14
19 -9 15 4 25 2 25 -5 0 -6 -5 -11 -12 -11 -6 0 -4 -8 6 -19 23 -25 13 -41
-25 -41 -28 0 -29 1 -29 50 0 30 4 50 11 50 6 0 9 -7 5 -15z m474 -20 c0 -19
-4 -35 -10 -35 -5 0 -10 16 -10 35 0 19 5 35 10 35 6 0 10 -16 10 -35z m0 -49
c0 -3 -4 -8 -10 -11 -5 -3 -10 -1 -10 4 0 6 5 11 10 11 6 0 10 -2 10 -4z"/>
<path d="M1988 2227 c-51 -15 -111 -56 -129 -89 -17 -31 -14 -114 5 -143 59
-91 227 -119 353 -59 41 20 56 34 72 68 26 53 26 79 1 131 -39 81 -184 125
-302 92z"/>
<path d="M410 2195 l0 -115 85 0 c126 0 175 32 175 115 0 82 -52 115 -180 115
l-80 0 0 -115z"/>
<path d="M410 1805 l0 -127 105 4 c121 4 151 19 174 85 13 35 13 46 0 79 -22
59 -64 78 -181 82 l-98 4 0 -127z"/>
<path d="M1450 1585 c0 -8 5 -15 10 -15 6 0 10 7 10 15 0 8 -4 15 -10 15 -5 0
-10 -7 -10 -15z"/>
<path d="M1450 1546 c0 -9 7 -16 16 -16 17 0 14 22 -4 28 -7 2 -12 -3 -12 -12z"/>
<path d="M1560 1585 c0 -8 5 -15 10 -15 6 0 10 7 10 15 0 8 -4 15 -10 15 -5 0
-10 -7 -10 -15z"/>
<path d="M1630 1566 c0 -39 18 -48 41 -20 15 18 2 47 -25 52 -12 3 -16 -4 -16
-32z"/>
<path d="M1912 1565 l-22 -35 27 0 c21 0 34 9 51 35 l22 35 -27 0 c-21 0 -34
-9 -51 -35z"/>
<path d="M1815 1570 c-3 -5 -1 -10 4 -10 6 0 11 5 11 10 0 6 -2 10 -4 10 -3 0
-8 -4 -11 -10z"/>
<path d="M2074 1586 c-9 -23 0 -51 17 -54 19 -4 32 23 24 49 -7 22 -33 25 -41
5z"/>
<path d="M2162 1588 c6 -18 28 -21 28 -4 0 9 -7 16 -16 16 -9 0 -14 -5 -12
-12z"/>
<path d="M2612 1588 c6 -18 28 -21 28 -4 0 9 -7 16 -16 16 -9 0 -14 -5 -12
-12z"/>
<path d="M2530 1420 c0 -21 4 -30 13 -27 6 2 12 14 12 27 0 13 -6 25 -12 28
-9 2 -13 -7 -13 -28z"/>
<path d="M2600 1415 c0 -25 4 -35 13 -32 6 2 12 16 12 32 0 16 -6 30 -12 33
-9 2 -13 -8 -13 -33z"/>
<path d="M2675 1420 c-3 -5 -1 -10 4 -10 6 0 11 5 11 10 0 6 -2 10 -4 10 -3 0
-8 -4 -11 -10z"/>
<path d="M2303 1414 c-3 -9 0 -20 8 -25 23 -14 29 -11 29 16 0 28 -27 35 -37
9z"/>
<path d="M2360 1420 c0 -5 5 -10 10 -10 6 0 10 5 10 10 0 6 -4 10 -10 10 -5 0
-10 -4 -10 -10z"/>
<path d="M2020 1300 c0 -5 5 -10 10 -10 6 0 10 5 10 10 0 6 -4 10 -10 10 -5 0
-10 -4 -10 -10z"/>
<path d="M2090 1300 c0 -5 7 -10 15 -10 8 0 15 5 15 10 0 6 -7 10 -15 10 -8 0
-15 -4 -15 -10z"/>
<path d="M2020 1255 c0 -9 5 -15 11 -13 6 2 11 8 11 13 0 5 -5 11 -11 13 -6 2
-11 -4 -11 -13z"/>
<path d="M2096 1255 c4 -8 10 -15 15 -15 5 0 9 7 9 15 0 8 -7 15 -15 15 -9 0
-12 -6 -9 -15z"/>
<path d="M2284 1296 c-9 -23 0 -51 17 -54 19 -4 32 23 24 49 -7 22 -33 25 -41
5z"/>
<path d="M2670 1265 c0 -21 5 -25 30 -25 36 0 37 6 8 31 -31 25 -38 24 -38 -6z"/>
<path d="M2470 1265 c0 -16 6 -25 15 -25 9 0 15 9 15 25 0 16 -6 25 -15 25 -9
0 -15 -9 -15 -25z"/>
<path d="M680 730 c0 -5 4 -10 9 -10 6 0 13 5 16 10 3 6 -1 10 -9 10 -9 0 -16
-4 -16 -10z"/>
<path d="M721 714 c0 -11 3 -14 6 -6 3 7 2 16 -1 19 -3 4 -6 -2 -5 -13z"/>
<path d="M680 685 c0 -8 7 -15 15 -15 8 0 15 7 15 15 0 8 -7 15 -15 15 -8 0
-15 -7 -15 -15z"/>
<path d="M870 730 c0 -5 7 -10 15 -10 8 0 15 5 15 10 0 6 -7 10 -15 10 -8 0
-15 -4 -15 -10z"/>
<path d="M1100 705 c0 -37 18 -47 40 -20 16 19 3 55 -21 55 -15 0 -19 -7 -19
-35z"/>
<path d="M870 685 c0 -8 7 -15 15 -15 8 0 15 7 15 15 0 8 -7 15 -15 15 -8 0
-15 -7 -15 -15z"/>
<path d="M1351 711 c-26 -36 -26 -41 -2 -41 19 0 61 43 61 61 0 21 -40 7 -59
-20z"/>
<path d="M1607 734 c-8 -8 1 -24 14 -24 5 0 9 7 9 15 0 15 -12 20 -23 9z"/>
<path d="M1550 640 c0 -5 7 -10 15 -10 8 0 15 5 15 10 0 6 -7 10 -15 10 -8 0
-15 -4 -15 -10z"/>
<path d="M1575 530 c3 -5 11 -10 16 -10 6 0 7 5 4 10 -3 6 -11 10 -16 10 -6 0
-7 -4 -4 -10z"/>
<path d="M1550 490 c0 -5 7 -10 16 -10 8 0 12 5 9 10 -3 6 -10 10 -16 10 -5 0
-9 -4 -9 -10z"/>
<path d="M1590 380 c0 -5 6 -10 14 -10 8 0 18 5 21 10 3 6 -3 10 -14 10 -12 0
-21 -4 -21 -10z"/>
<path d="M1690 340 c0 -5 4 -10 9 -10 6 0 13 5 16 10 3 6 -1 10 -9 10 -9 0
-16 -4 -16 -10z"/>
<path d="M1644 325 c8 -8 17 -15 20 -15 3 0 3 7 0 15 -4 8 -13 15 -21 15 -12
0 -12 -2 1 -15z"/>
<path d="M1620 260 c0 -17 5 -21 28 -18 16 2 27 9 27 18 0 9 -11 16 -27 18
-23 3 -28 -1 -28 -18z"/>
<path d="M1161 576 c-19 -23 -4 -58 22 -54 17 2 22 10 22 33 0 34 -24 45 -44
21z"/>
<path d="M1250 575 c-14 -17 -5 -51 16 -59 22 -8 41 38 24 59 -16 19 -24 19
-40 0z"/>
<path d="M1337 558 c7 -41 8 -42 28 -35 20 8 19 53 -1 61 -29 11 -34 6 -27
-26z"/>
<path d="M970 531 c0 -5 7 -11 15 -15 8 -3 15 -1 15 3 0 5 -7 11 -15 15 -8 3
-15 1 -15 -3z"/>
</g>
</svg>
